<svg xmlns="http://www.w3.org/2000/svg" viewBox="0 0 63.86 116.3"><defs><style>.cls-1{fill:#a1acb2;}</style></defs><title>bird6</title><g id="Layer_2" data-name="Layer 2"><g id="Layer_1-2" data-name="Layer 1"><circle class="cls-1" cx="34.77" cy="10.67" r="1.42"/><path class="cls-1" d="M6,90.48l5.06-4a53.8,53.8,0,0,0,6.71-3.76L19.82,97l-.39,1L6.27,100.64a.75.75,0,1,0,.29,1.47l12.2-2.44-1.7,4.26a.73.73,0,0,0,0,.18c0,.13-.37,3.11,1.31,5a4.68,4.68,0,0,0,3.69,1.5.74.74,0,0,0,.32-1.42l-.06,0-.1,0-.17-.09-.06,0a3.79,3.79,0,0,1-2-2.79,1.77,1.77,0,0,0,.35-.22,3.93,3.93,0,0,0,1-3.11,7.9,7.9,0,0,1,2.53-3.77c.09-.07.16-.14.25-.2s.3-.17.45-.26.29-.18.45-.25l15-3-1.7,4.26a.73.73,0,0,0,0,.18c0,.13-.37,3.11,1.31,5a4.68,4.68,0,0,0,3.69,1.5.74.74,0,0,0,.32-1.42l-.06,0-.1,0-.17-.09-.06,0a3.79,3.79,0,0,1-2-2.79,1.77,1.77,0,0,0,.35-.22,3.93,3.93,0,0,0,1-3.11c0-.06,0-.16.09-.29l0-.07c0-.11.09-.24.15-.39l.07-.15c.06-.14.12-.28.2-.43l.13-.23c.08-.14.15-.28.25-.43l.19-.27c.1-.14.19-.28.3-.42s.18-.19.26-.29.23-.26.36-.39.23-.18.34-.28.27-.23.42-.34.28-.16.42-.24.31-.19.48-.26l17-3.4A.75.75,0,0,0,63,89.31L49,92.09l-5.35-2.68-12.43-11v-.88a35.46,35.46,0,0,0,4-12.7,35.26,35.26,0,0,0,4.52-17C40.52,46.7,44,41.25,44,31.93a13.86,13.86,0,0,0-7.94-13l.18-.18,19.33,13.8.11.06.07,0a.75.75,0,0,0,.25,0h0a.75.75,0,0,0,.29-.07l.08-.05a.72.72,0,0,0,.13-.08l0,0,0,0a.71.71,0,0,0,0-.08.74.74,0,0,0,.07-.13.71.71,0,0,0,0-.13.7.7,0,0,0-.1-.53.69.69,0,0,0,0-.07l-12.56-16-3-3.81C40.54,10.74,34.4,0,26.26,0,17.54,0,6.28,8.7.09,20.24a.75.75,0,0,0,1.2.87,67,67,0,0,1,9.29-7.81,14.48,14.48,0,0,0-2.08,7.3.75.75,0,0,0,1.28.53L10.87,20a8.75,8.75,0,0,0,2.08,6.73.75.75,0,0,0,1.23-.17l.6-1.19a5.06,5.06,0,0,0,2.75,3,.73.73,0,0,0,.41,0C12.79,35.06,0,52.91,0,65.95a.74.74,0,0,0,0,.15l1.41,7L2.84,91.52A.75.75,0,0,0,4.05,92L6,90.48Zm8-9.1q.54-.8,1.08-1.65l.2-.33c.37-.6.74-1.22,1.1-1.87l0-.09c.35-.63.7-1.29,1-2l.17-.34q.5-1,1-2.09l.18-.43c.31-.74.61-1.49.9-2.27l.1-.29q.41-1.15.78-2.35l.08-.27c.25-.83.48-1.69.69-2.56l.12-.5q.31-1.31.55-2.68c0-.16.05-.31.08-.47.16-1,.31-1.95.42-3a19.71,19.71,0,0,1,1.24,3.18q.27.91.5,1.91c0,.2.08.43.13.63.1.47.2.95.29,1.45,0,.28.08.57.13.86.07.46.14.91.2,1.39s.07.68.11,1,.09.8.12,1.22l-1.54,1.72-.8.89-.08.08q-1.21,1.32-2.45,2.63c-1,1-2,2-3,3.06s-1.79,1.79-2.69,2.66l-1,1-.28.27.32-.47Zm11.9-21.27L26,60q.3-.61.61-1.29l.08-.18q.31-.69.63-1.45l.08-.19c.21-.51.41-1,.61-1.58l.06-.18c.2-.55.39-1.12.56-1.7l0-.16c.18-.59.34-1.19.49-1.8l0-.12c.15-.62.27-1.25.38-1.88v-.07c.1-.65.18-1.3.23-2l.6.45.23.19.47.4.28.27c.16.15.31.29.47.46l.32.35c.16.17.31.34.47.53s.22.29.33.43.31.39.46.6.22.34.33.52.29.44.43.68.22.4.32.61.27.49.4.76.2.47.3.7.2.48.3.73c-.09.24-.17.49-.28.75a26.77,26.77,0,0,1-1.16,2.57l0,.08h0l-.22.42-.3.53-.35.6-.28.45v0l-.46.69-.09.13-.17.25-.11.15c-.24.34-.47.64-.68.91L30,64.29l-.31.38-1.33,1.61-.27.32-1.06,1.25-.25.29-.18.21c0-.15,0-.3-.06-.45s-.06-.5-.09-.75q-.1-.77-.22-1.5c0-.23-.07-.46-.11-.69q-.15-.85-.33-1.66c0-.11,0-.23-.07-.34-.13-.57-.28-1.13-.43-1.66l0-.07Q25.62,60.72,25.92,60.12Zm-6.06,42.5a.77.77,0,0,0,0,.18c0,1.68-.44,2.08-.56,2.09a.75.75,0,0,0-.79.45,7.15,7.15,0,0,1,0-.95l2.79-7a.75.75,0,0,0,0-.38L19.15,81.75l.52-.37.92-.65.25-.18,1.84,13.84a.75.75,0,0,0,.33.52l2.58,1.72a7.37,7.37,0,0,0-1.12.39A8.79,8.79,0,0,0,19.86,102.62Zm8-6.29-3.71-2.47L22.21,79.5a58.15,58.15,0,0,0,4.92-4.26l-.2,2s0,0,0,0,0,0,0,0v2.83a.75.75,0,0,0,.25.56L41,93.08l-.27.68ZM42.77,90.6a.72.72,0,0,0,.16.11l3.55,1.78a7.4,7.4,0,0,0-.75.28,8.79,8.79,0,0,0-4.61,5.6.77.77,0,0,0,0,.18c0,1.68-.44,2.08-.56,2.09a.75.75,0,0,0-.79.45,7.15,7.15,0,0,1,0-.95l2.79-7a.75.75,0,0,0-.19-.84L28.43,79.79V78h1.33v.67a.75.75,0,0,0,.25.56ZM33.85,64.18a.75.75,0,0,0-.09.28,35.06,35.06,0,0,1-3.69,12.07H28.51l.33-3.26a.75.75,0,0,0-1.29-.59A55.39,55.39,0,0,1,21,78.59c-1,.75-2,1.49-3,2.18-.87.59-1.7,1.11-2.47,1.58L15.8,82h0c.9-.88,1.82-1.78,2.71-2.69h0c1-1,2-2,3-3.08h0c1.74-1.83,3.45-3.7,5.07-5.55l0-.05h0l.72-.84.61-.7.25-.29,1.07-1.26.28-.33,1.33-1.61.31-.38.74-.92.59-.74.41-.53.43-.59.19-.27.08-.12.48-.72v0l.3-.49.37-.63.32-.56.21-.4,0,0h0l0-.07a28.62,28.62,0,0,0,1.24-2.74c.13-.32.24-.65.36-1l0-.05h0l.05-.16,0-.08v0c.09-.28.19-.57.27-.85l.11-.38,0-.09c.06-.22.12-.44.18-.67l.13-.5c.05-.21.1-.42.14-.63v-.08l0-.12A34.16,34.16,0,0,1,33.85,64.18Zm8.67-32.25A30.85,30.85,0,0,1,41,41.79c0-.08,0-.16,0-.25q.08-.68.14-1.35c0-.14,0-.29,0-.43,0-.51.07-1,.08-1.52v-.06c0-.52,0-1,0-1.53,0-.13,0-.26,0-.38q0-.59,0-1.17c0-.11,0-.22,0-.33,0-.47-.07-.94-.12-1.4l0-.21Q41,32.58,40.89,32l-.06-.35q-.09-.57-.2-1.11l0-.16c-.09-.41-.18-.81-.27-1.21l-.07-.27q-.12-.47-.25-.91l-.08-.27c-.11-.37-.22-.72-.34-1.07l0-.07c-.11-.32-.22-.63-.34-.93l-.1-.25q-.16-.4-.31-.78l-.07-.16q-.19-.45-.38-.86l-.08-.17L38,22.82l-.1-.19c-.25-.49-.5-.94-.74-1.35l0-.06A12.36,12.36,0,0,1,42.52,31.93ZM35.45,15.41l-.13-.19-.22-.33L35,14.71l-.21-.32-.13-.19-.21-.32-.11-.17-.2-.32-.1-.15-.19-.31-.09-.14-.18-.3-.07-.12-.16-.28L33.27,12l-.13-.24-.06-.11L33,11.4l0-.09-.08-.18,0-.09-.05-.14,0-.07a.8.8,0,0,1,0-.16,2.6,2.6,0,0,1,.18-1,1.82,1.82,0,0,1,1.9-1.11,1.73,1.73,0,0,1,.58.13c1.6.59,3.8,3,4.51,3.85l2.27,2.89H41.7a5.87,5.87,0,0,1-.63-.07h0A9.93,9.93,0,0,1,39,14.75l0,0-.47-.21-.08,0-.39-.2a.75.75,0,0,0-.88,1.2l9.63,8.89-10-7.14L36.56,17l-.16-.22-.21-.29L36,16.26l-.21-.3-.15-.21Zm5.36,1.45c.23,0,.45.06.68.08h.93l.48-.06.21,0,.09,0L49.63,25ZM26.26,1.5c4,0,7.53,3.08,10,6l-.4-.17a3.17,3.17,0,0,0-1.1-.22,4.49,4.49,0,0,0-.86.08l-.23.06a3.51,3.51,0,0,0-.49.16l-.2.09a3.08,3.08,0,0,0-.43.26l-.1.07a3,3,0,0,0-.41.38l0,0,0,0L31.8,8c-.17-.15-.34-.31-.52-.44L31,7.35,30.54,7l-.3-.19-.46-.26-.32-.16L29,6.21l-.32-.12-.48-.15-.31-.08-.54-.1-.26,0a7.34,7.34,0,0,0-.82,0c-3.9,0-8.32,1.42-13.13,4.22a61.13,61.13,0,0,0-8.78,6.32C10.48,7.56,19.27,1.5,26.26,1.5ZM17.43,26.66a6.37,6.37,0,0,1-1.77-3.38.75.75,0,0,0-1.41-.19l-.88,1.75c-1.9-3.07-.6-6.79-.58-6.83a.75.75,0,0,0-1.24-.79l-1.38,1.38A14.93,14.93,0,0,1,14,11.21a.74.74,0,0,0,.14-.18l.75-.41.79-.43.89-.44.75-.36L18.22,9l.71-.3.89-.32.67-.24c.3-.1.59-.17.88-.25L22,7.73c.3-.08.6-.13.89-.19l.58-.12c.32-.06.64-.09,1-.13l.47-.06q.7-.06,1.37-.06a5.7,5.7,0,0,1,.68,0l.23,0,.45.08.27.08.4.13.28.12.38.17.29.16.36.21.29.19.35.25.29.23.34.3.28.27.18.18c0,.06,0,.12,0,.18l0,.17a4.27,4.27,0,0,0-.07.71,1.39,1.39,0,0,0,0,.27l0,.11c0,.07,0,.14.06.22l.06.15.09.23.08.18.11.24.1.2.13.26.12.22.15.27.13.23.17.29.14.23.18.29.15.24.19.31.15.23.22.33.13.2.31.46.2.3.17.25.19.27.14.2.18.26.14.2.17.23.08.11-.63.63a12.06,12.06,0,0,1-6.23-5.16.75.75,0,1,0-1.32.71,13.5,13.5,0,0,0,7.31,6l0,0a27.42,27.42,0,0,1,5,12.19c0,.2.06.41.09.61q.08.54.14,1.09c0,.4.08.8.11,1.21,0,.17,0,.35,0,.52,0,.58,0,1.16,0,1.77,0,.09,0,.17,0,.26,0,.62,0,1.25-.07,1.9,0,.06,0,.12,0,.18,0,.68-.12,1.38-.21,2.1l0,.15c0-.11,0-.2,0-.31-.05-.37-.11-.73-.17-1.08q-.19-1.11-.43-2.14c-.05-.21-.09-.43-.15-.63-.1-.37-.21-.71-.32-1.06s-.15-.5-.24-.74-.24-.65-.37-1-.19-.47-.3-.7-.27-.59-.42-.88l-.08-.17,0-.06a.67.67,0,0,0-.05-.09h0c-.13-.23-.26-.46-.39-.68l-.29-.47c-.23-.35-.46-.69-.7-1l-.25-.34c-.29-.36-.58-.69-.88-1l-.3-.31c-.31-.3-.62-.57-.93-.83l-.22-.2-.28-.2-.6-.42a14.91,14.91,0,0,0-8.23-2.37,16.1,16.1,0,0,0-2.92.26l-1.13-1.13a.75.75,0,0,0-1.2.19Zm2-.55.2.2-.8,1Zm1.62.83h0c1.54-.3,10.07-1.5,14.5,6.78v.05l0,.1,0,.11,0,.14.06.18.09.31.07.23.06.22.07.27.06.25.08.31.07.28.08.37.06.29.09.45.05.27q.07.36.14.74v0c0,.28.1.57.14.87l0,.15c0,.25.07.5.1.76l0,.23c0,.25.06.5.08.75l0,.23q0,.4.07.82v.2q0,.48.05,1v.08c0,.07,0,.15,0,.22l0,0-.31-.3c-.2-.2-.41-.4-.62-.58l-.38-.3c-.19-.15-.39-.31-.58-.45l-.42-.28-.57-.36L33.82,41l-.56-.28-.46-.2-.55-.22-.47-.16L31.23,40l-.46-.13-.53-.13-.46-.09-.5-.09-.45-.06-.48-.05-.43,0-.45,0-.41,0H25.89l-.35,0-.34,0-.3,0-.31,0-.24,0-.43.06h0c-.34.06-.56.1-.65.13a.75.75,0,0,0-.5.39c-5.55,10.78-7,23.68-7.15,25.56l-4.72,5.91L8.53,65.67a.75.75,0,0,0-.59-.46H7.81a.72.72,0,0,0-.29.07l0,0a.75.75,0,0,0-.24.19L2.59,71.31,1.5,65.87C1.56,51.2,19.11,29.26,21,26.94ZM2.94,73.27l4.68-5.85L10,73.31a.75.75,0,0,0,1.28.19l5.67-7.09a.75.75,0,0,0,.16-.41c0-.14,1.14-13.63,6.84-24.91l.25,0a15.52,15.52,0,0,1,1.71-.17,12.82,12.82,0,0,1,11,4.62h0v0l.32.43c0,.08,0,.16,0,.24h0l0,.36c0,.2,0,.4,0,.6h0c0,.13,0,.26,0,.39s0,.4-.05.6,0,.24,0,.36l0,.16c0,.16,0,.32-.06.49s0,.34-.07.5v.09c0,.26-.09.53-.13.79v0c0,.19-.07.37-.1.56l-.09.43v.05c0,.2-.09.4-.14.6l-.12.48,0,.16-.11-.22-.23-.44-.31-.57-.24-.41L35,50.7l-.24-.36-.35-.49-.23-.31-.38-.47-.21-.25-.5-.55L33,48.17l-.57-.57-.18-.17-.36-.33-.21-.18-.31-.25-.21-.16-.27-.2-.19-.14L30.44,46l-.17-.11-.2-.12-.13-.08-.16-.09-.1-.06-.12-.07-.05,0-.08,0a.75.75,0,0,0-1.07.68c0,.54,0,1.09-.08,1.63,0,.09,0,.18,0,.27-.05.52-.13,1-.22,1.56l-.06.31c-.1.53-.21,1-.34,1.57l0,.17c-.13.5-.27,1-.42,1.48l-.06.2c-.16.5-.33,1-.5,1.47l-.1.29c-.17.47-.35.93-.54,1.37l-.09.22c-.18.44-.37.87-.55,1.27l0,.07c-.19.42-.38.82-.57,1.21l-.05.1,0-.08c-.12-.3-.23-.58-.34-.84l0-.09q-.17-.37-.33-.69l0-.06c-.11-.21-.21-.41-.31-.58l-.06-.1-.28-.45,0-.06L23,56h0l-.2-.25,0,0-.13-.15,0,0-.05-.05a.75.75,0,0,0-1.27.48q-.13,1.74-.35,3.39a48.66,48.66,0,0,1-15.86,30L4.22,90Z"/><path class="cls-1" d="M63,103.48,6.27,114.82a.75.75,0,0,0,.15,1.49h.15L63.26,105a.75.75,0,1,0-.29-1.47Z"/></g></g></svg>