<svg xmlns="http://www.w3.org/2000/svg" viewBox="0 0 41.32 62.45"><defs><style>.cls-1{fill:#a1acb2;}</style></defs><title>bird5</title><g id="Layer_2" data-name="Layer 2"><g id="Layer_1-2" data-name="Layer 1"><path class="cls-1" d="M40.94,7.19a.75.75,0,0,0-1,.27l-15.66,27a.74.74,0,0,0-.17-.27l-1.34-1.34L41.22,1.13a.75.75,0,1,0-1.3-.75L24.3,27.23c0-.32,0-.64,0-1,0-9.43-6.77-13.06-7.45-13.4a2.7,2.7,0,0,1-1.06-2.19v-.12a7,7,0,0,1,.35-2.63c.59-1.46,2.09-2.16,4.57-2.16a.75.75,0,0,0,.37-1.4,9.4,9.4,0,0,0-7.58-.1H9.39c-.09,0-9.25.12-9.25,10.67v4.21C0,20-1,30.21,4.57,35.27a13,13,0,0,0,9.29,4.46l-2.31,4.63s0,0,0,0a.73.73,0,0,0-.05.2.67.67,0,0,0,0,.07v4.28a.74.74,0,0,0,.05.27l-7,12.11a.75.75,0,0,0,1.3.75L13,49.69h2.07a.74.74,0,0,0,.61-.34l-6.93,12a.75.75,0,1,0,1.3.75L20.12,44.65l.49.81a2.88,2.88,0,0,0,5.26-.78l0-.13a2.87,2.87,0,0,0,3.29-4.23l-.36-.61h0l-3-4.81L41.22,8.21A.75.75,0,0,0,40.94,7.19ZM13.13,44.54l2.39-4.78a15.53,15.53,0,0,0,1.56-.1l-3.25,5.59ZM2.28,13.8c.15-.26.32-.52.49-.77L3,12.72q.27-.36.56-.7l.19-.23q.39-.44.82-.85l.19-.17q.35-.32.7-.62l.29-.24.68-.51.26-.19.54-.36s0,0,0,0a1.41,1.41,0,0,0,.11.43l0,.08a1.41,1.41,0,0,0,.25.35l.07.05a1.41,1.41,0,0,0,.37.24l.05,0a1.41,1.41,0,0,0,.48.09h0a1.42,1.42,0,0,0,.77-2.6l.09,0,.26-.14L10.61,7l0,0,.76-.34.23-.09.51-.21.19-.07.11,0-.85,2.56-.05,0-.09.06-.2.14-.14.1-.24.18-.17.13-.31.24-.17.13c-.34.27-.72.58-1.12.94l-.19.17-.43.4-.24.23-.41.4-.27.27-.41.44-.27.3-.42.48-.26.32-.44.56-.23.29q-.29.39-.58.81l-.08.11q-.32.47-.62,1l-.17.3c-.14.24-.28.49-.41.74l-.2.4-.2.41c-.53,0-1.08.07-1.65.08V15.09a10.3,10.3,0,0,1,.49-1Zm2.79,4.32c.14-.26.29-.53.44-.78l0-.07c.19-.32.39-.62.59-.92l.21-.29.41-.58L7,15.16l.39-.49.26-.31L8,13.91l.27-.29.38-.41L8.95,13l.39-.38.23-.23L10,12l.19-.18.46-.4.08-.07.51-.42.07-.05.37-.29.13-.1.25-.18.11-.08.18-.13.08-.06.12-.08,0,0,0,0L14.37,9a13.67,13.67,0,0,0-.06,1.53v.12a4.22,4.22,0,0,0,1.07,2.85A17.89,17.89,0,0,1,9.56,17,23.15,23.15,0,0,1,5.07,18.12Zm9.82-11-1.38.69.73-2.19A9.78,9.78,0,0,1,16.86,5,4.41,4.41,0,0,0,14.88,7.08ZM9.39,5.75h.26L9.1,6l-.32.16-1,.55-.14.09-.9.54-.37.25-.68.46-.42.31-.62.48-.42.36-.58.52-.41.4-.54.57-.38.44-.21.24A7.79,7.79,0,0,1,9.39,5.75ZM1.57,19.95H1.8C4.26,26.06,6.53,33.05,6.28,34.7a4,4,0,0,1-.64-.49C1.25,30.29,1.42,22.32,1.57,19.95Zm5.82,15.9,0-.06.06-.09,0-.08.05-.11,0-.09,0-.14,0-.11c0-.06,0-.12,0-.18s0-.08,0-.12,0-.16,0-.25,0-.07,0-.11,0-.28,0-.43,0-.07,0-.11,0-.26,0-.41l0-.22c0-.12,0-.24-.06-.38l-.05-.28-.08-.42-.07-.32-.11-.47-.09-.37-.14-.53L7,30.15l-.18-.62-.13-.43-.24-.76-.13-.41c-.13-.41-.27-.84-.43-1.3l-.31-.91-.09-.27-.24-.69-.08-.22-.31-.85-.08-.21-.23-.63-.09-.25-.55-1.46L3.83,21l-.21-.54,0-.08-.2-.5.43,0a24.53,24.53,0,0,0,5.57-1.16,17.3,17.3,0,0,0,7.24-4.23,13.37,13.37,0,0,1,6.17,11.81c0,1.44,0,2.67-.13,3.76l-1,1.78-.4-.39a.75.75,0,0,0-1.28.53v2.75l-1.9,3.26a11.94,11.94,0,0,1-3,.33,12.62,12.62,0,0,1-7.68-2.4ZM15.59,47l-.65-.65,5.5-9.46a.75.75,0,0,0,.29.06h2.13l-3.39,5.86h0L15.75,49.2a.74.74,0,0,0,.05-.26V47.52A.75.75,0,0,0,15.59,47Zm12-6.51.36.6a1.38,1.38,0,1,1-2.36,1.42.75.75,0,0,0-1.29.77,1.38,1.38,0,1,1-2.36,1.42L21,43.16l3.95-6.82Z"/></g></g></svg>