<svg xmlns="http://www.w3.org/2000/svg" viewBox="0 0 98.25 68.11"><defs><style>.cls-1{fill:#a1acb2;}</style></defs><title>bird4</title><g id="Layer_2" data-name="Layer 2"><g id="Layer_1-2" data-name="Layer 1"><path class="cls-1" d="M98.18,35.45l-1.79-3.83a.75.75,0,0,0-.54-.42L67.55,26a6.85,6.85,0,0,0,1.91-2.22.75.75,0,0,0-.41-1l-11.3-4.24A75.68,75.68,0,0,0,45,14.23l-.2,0c-9.37-2.16-15.67-1.6-17-1.45a33.08,33.08,0,0,0-8-2.5L14.16.38a.75.75,0,0,0-1.3.75L18,10c-.53,0-1.07-.08-1.61-.08a11.21,11.21,0,0,0-3.51.56.73.73,0,0,0-.06-.18L7.07.38a.75.75,0,0,0-1.3.75L11.46,11A11.68,11.68,0,0,0,7.29,14.4L1.45,19.07.28,20h0A.75.75,0,0,0,.9,21.33l.16,0c1.45-.25,12.17-1.8,16,6.61l0,.06a19.12,19.12,0,0,0,1.38,2.67.74.74,0,0,0,.14.31h0a19.13,19.13,0,0,0,8.47,7.21L31,45l-.63.11a1,1,0,0,0,.16,2h.17L32,46.86l.36.63-1,.59a1,1,0,0,0,1,1.71l1-.57.45.78a1,1,0,0,0,.76,1.33L44,67.74a.75.75,0,0,0,1.3-.75L35.88,50.53l3-4L51.12,67.74a.75.75,0,0,0,1.3-.75L39.93,45.24l6.47-5.18a1,1,0,0,0,.25-.29h19.3a.75.75,0,0,0,.72-.53l26,7.58a.74.74,0,0,0,.21,0h0a.75.75,0,0,0,.53-.22l2.83-2.83a.75.75,0,0,0,.18-.77l-1.27-3.82L98,36.29A.75.75,0,0,0,98.18,35.45ZM34.77,38.27A17.79,17.79,0,0,1,32,38c7.34-1.11,9.93-4.83,10.4-5.61a23.21,23.21,0,0,0,8.07-5.19c1.3.88,4.84,3.28,7.92,5.33,2,1.33,3.47,2.29,4.35,2.85a4.94,4.94,0,0,1,2.42,2.87Zm-14-7.91a22.51,22.51,0,0,0,4.37-4.16A15.19,15.19,0,0,0,28.6,14.44l.08,0,.59.12.17,0,.77.17.13,0a47.56,47.56,0,0,1,6.51,2h0c4.52,1.8,9.61,4.71,12.53,9.3a21.63,21.63,0,0,1-7.63,4.92l-.19,0a25.43,25.43,0,0,1-9.3,1.48l-.77,0-.68,0A37.16,37.16,0,0,1,20.78,30.36Zm16.28-16,1.19.14h.11c1.73.23,3.64.55,5.7,1a2.93,2.93,0,0,1-.83,2.75c-.52-.32-1.05-.62-1.58-.91l-.14-.08a43,43,0,0,0-7.87-3.21c1,0,2.11.13,3.33.26Zm2.58,18.89a11,11,0,0,1-1.23.92c-1.84,1.19-5.16,2.61-10.58,2.64-.36-.15-.71-.31-1.06-.49l0,0a17.58,17.58,0,0,1-5.28-4.14,39.29,39.29,0,0,0,6,1.46l.1,0,.84.12.34,0,.69.08L30,34l.52,0,.3,0h.26c.5,0,1,0,1.51,0h.28a27.61,27.61,0,0,0,6.74-.81ZM64.53,27h.27l30.4,5.6,1.41,3-2.53,2.56L70.49,31.24,63.1,27Zm-4.45,0,7.3,4.17H59c-2.18-1.45-4.57-3.06-6.21-4.17Zm3.43,7.12-2.24-1.45h8.82l23.61,6.95.19.58,1,2.86-2.19,2.19L66.51,37.63A6.56,6.56,0,0,0,63.51,34.13ZM67.64,23.8a4.12,4.12,0,0,1-2.86,1.69h-14a22,22,0,0,0-6.28-6.34,4.33,4.33,0,0,0,1.12-3.23,74.74,74.74,0,0,1,11.59,3.93ZM8.75,19.93a21.07,21.07,0,0,0-4.22-.41c-.45,0-.88,0-1.27,0l3.83-3.07v1.27a.75.75,0,0,0,.75.75H9.46Zm1.48.4,1.12-2.24A.75.75,0,0,0,10.67,17H8.59V15.17a10,10,0,0,1,7.75-3.75A28.67,28.67,0,0,1,27,14a13.48,13.48,0,0,1-3,11.25,21.17,21.17,0,0,1-4.5,4.17,17.52,17.52,0,0,1-1-2l0-.09A12.5,12.5,0,0,0,10.22,20.33ZM29.23,39a19.11,19.11,0,0,0,5.53.81h.29l2.39,4.17-4.89.81Zm4.39,7.65.36-.06-.3.18Zm1.06,1.85.47-.28-.36.47Zm4.23-5-2.14-3.72h6.78Z"/><path class="cls-1" d="M14.45,14.17a1.46,1.46,0,1,0,1.46,1.46A1.46,1.46,0,0,0,14.45,14.17Zm0,1.46a0,0,0,0,1,.08,0S14.4,15.68,14.4,15.63Z"/></g></g></svg>