<svg xmlns="http://www.w3.org/2000/svg" viewBox="0 0 69.53 86.54"><defs><style>.cls-1{fill:#a1acb2;}</style></defs><title>bird1</title><g id="Layer_2" data-name="Layer 2"><g id="Layer_1-2" data-name="Layer 1"><path class="cls-1" d="M68.25,58.33l-13.1,13.1c0-.06-.07-.1-.11-.16a5.44,5.44,0,0,0-.41-.62l-.2-.26a6.28,6.28,0,0,0-.77-.77,5.29,5.29,0,0,0-.49-.36L53,69.13l-.3-.17L69.31,52.3a.75.75,0,1,0-1.06-1.06L51,68.46a8.79,8.79,0,0,0-4.88.87l-7.6-5.07.83-.5a54,54,0,0,0,6.18-4.26c1.27,3,3.33,2.93,3.41,2.93a.75.75,0,0,0,.64-1.07,6.32,6.32,0,0,1-.16-4.59h2.12a1.86,1.86,0,0,1,1,1.28c.19,1.17-.9,2.66-1.33,3.13a.75.75,0,0,0,.55,1.26A5,5,0,0,0,53,52.62c7.09-7.76,10.84-16.36,10.84-25,0-.42-.21-10.15-2.84-14.37a14.91,14.91,0,0,0-3.45-8.77h0l-.32-.35h0C54.63,1.41,50.88,0,46.1,0S37.58,1.41,35,4.18h0l-.31.35h0a14.92,14.92,0,0,0-3.45,8.72c-.68.91-3.52,4.91-4.18,8.31C25.29,22.71,16.41,29.26,14.21,43L.13,64.11a.75.75,0,0,0,.44,1.14,4.94,4.94,0,0,0,2.34-.11L.11,69.81a.75.75,0,0,0,.4,1.1A8.93,8.93,0,0,0,6,70.83l-.22.45a.75.75,0,0,0,.31,1A4.11,4.11,0,0,0,8,72.65a12.7,12.7,0,0,0,5.88-1.79c3.48-1.86,7-3.95,8.82-5v1.51a.75.75,0,0,0,1.17.62l3.09-2.06v1.43A.75.75,0,0,0,28.1,68l3.09-2.06v1.43a.75.75,0,0,0,1.14.64l2.2-1.32,9.43,6.73a12.78,12.78,0,0,0,.2,1.93l-9.91,9.91a.75.75,0,0,0,1.06,1.06L44.58,77c0,.08.07.14.1.22s.17.41.27.59l.17.3c.1.17.2.33.31.48l.17.24a5.76,5.76,0,0,0,.4.45l.12.13a5.5,5.5,0,0,0,.53.46l0,0-5.34,5.34a.75.75,0,1,0,1.06,1.06L48,80.66a3.81,3.81,0,0,0,.82.2h.08a.75.75,0,0,0,.65-1.12c-.07-.13-.15-.27-.22-.43l3.07-3.07V78.7a.75.75,0,0,0,1.19.61A3.34,3.34,0,0,0,55,76.49a.74.74,0,0,0,.28-.31A6.07,6.07,0,0,0,55.66,73L69.31,59.39a.75.75,0,1,0-1.06-1.06ZM51.12,70a3.78,3.78,0,0,1,1.59.78A4,4,0,0,1,54.13,73a4,4,0,0,1,.08.46c-.11-.25-.23-.5-.36-.73-.5-1-1.83-1.74-4.07-2.42L48.9,70l-.06,0A5.49,5.49,0,0,1,51.12,70ZM46.81,58.6l0-.07.9-.75a7.84,7.84,0,0,0,0,2.41A5.12,5.12,0,0,1,46.81,58.6Zm8.47-1.16a3.51,3.51,0,0,1-1.78,3A4.45,4.45,0,0,0,54,57.81a3.39,3.39,0,0,0-1.91-2.45.75.75,0,0,0-.36-.09H50.44l.12-.12.69-.69.53-.53A3.51,3.51,0,0,1,55.28,57.44Zm3-43-.19.09-.26.12-.23.09-.31.11-.27.09-.37.11-.31.08-.44.09-.35.07-.53.08-.37.05L54,15.5l-.36,0-1.16.05a.75.75,0,0,0-.4.13l-2.16,1.44A7.66,7.66,0,0,1,46.5,18.4a.75.75,0,0,0,.28-.3l.22-.43a6.3,6.3,0,0,1,2.29-2.07.75.75,0,0,0,.35-1c-2.08-4.7-3.17-4.7-3.52-4.7s-1.44,0-3.52,4.7a.75.75,0,0,0,.35,1,6.33,6.33,0,0,1,2.26,2l.24.48a.75.75,0,0,0,.28.3,7.76,7.76,0,0,1-3.44-1.26l-2.14-1.43a.75.75,0,0,0-.4-.13l-1.16-.05-.36,0-.67-.07-.37-.05-.54-.08-.34-.07-.45-.1-.3-.08-.38-.11-.26-.08-.33-.12-.21-.09-.28-.13-.17-.08-.24-.14-.08,0h2.57a16.47,16.47,0,0,0,4.43-.51c3.27-.92,3.41-2.8,3.41-3.08h0c0-.08,0-.17,0-.27v-.1c0-.07,0-.15,0-.23l0-.14c0-.08,0-.16,0-.24l0-.16c0-.09,0-.18-.07-.27l0-.16c0-.11-.07-.21-.11-.32l0-.13c-.06-.16-.14-.31-.22-.47l0-.07c-.07-.14-.16-.28-.25-.42L43,7.54l-.25-.33L42.59,7l-.3-.31-.18-.17-.38-.31-.2-.15c-.17-.12-.35-.23-.54-.34l-.14-.08a8.65,8.65,0,0,0-.79-.39l-.18-.07c-.23-.09-.47-.18-.72-.27l-.34-.1-.42-.12.19,0,.39,0h.86l.32,0a9.29,9.29,0,0,1,1.74.3h0l.54.17.06,0,.51.19h0A8.74,8.74,0,0,1,45.58,7a.72.72,0,0,0,.16.1l.08.05a.75.75,0,0,0,.8-.15l.16-.14,0,0L47,6.68l0,0,.22-.17h0a9.53,9.53,0,0,1,1.91-1.08l.06,0,.47-.18.1,0L50.26,5l.07,0A9.25,9.25,0,0,1,52,4.7l.32,0h.85l.41,0,.18,0-.41.12L53,5c-.25.08-.48.17-.7.26l-.2.08a8.68,8.68,0,0,0-.78.38l-.16.1c-.18.1-.35.21-.5.32l-.22.16-.35.29-.2.18L49.63,7l-.17.19-.23.31-.13.18c-.08.12-.15.24-.22.36l-.07.12c-.08.16-.15.31-.21.46l-.06.17c0,.09-.07.19-.1.28l-.05.19-.06.24,0,.18,0,.21,0,.16c0,.07,0,.14,0,.2s0,.08,0,.12,0,.17,0,.24v0h0c0,.37.24,3.58,7.84,3.58h2.57l-.09.06ZM53.9,25l-1,.38-.54.21-1.14.39-.33.11q-.74.23-1.46.42h0c-.47.12-.93.23-1.39.33l-.35.07-1,.18-.42.06-.88.12-.44,0-.82.07-.43,0-.78,0h-.42l-.75,0-.39,0-.74-.06-.36,0-.74-.09-.31,0L38.46,27l-.21,0-.95-.22h0c-.64-.16-1.24-.35-1.81-.55l-.14-.05-.67-.26-.21-.09-.55-.24-.23-.11-.49-.24L33,25.06l-.44-.24-.22-.12-.4-.24-.21-.13-.37-.24L31.15,24l-.35-.24-.16-.11-.34-.25-.12-.09L29.81,23l0,0-.37-.31h0l-.31-.27L29,22.3l-.18-.17L28.75,22l-.13-.13-.07-.07-.06-.07c.51-2.5,2.43-5.51,3.43-7l0,0h0l.27.25,0,0,.35.26.07,0,.4.25,0,0,.5.25.11.05.6.24h0l.66.2.15,0,.78.18.15,0,.82.14.14,0,1,.11.23,0c.37,0,.75.05,1.16.06l1.93,1.29a8.87,8.87,0,0,0,4.69,1.56h.81c2,.13,6.08.87,8.27,4.44l-.65.29ZM44.23,14.62A14,14,0,0,1,46.1,11.5,14,14,0,0,1,48,14.62a8,8,0,0,0-1.87,1.68A7.85,7.85,0,0,0,44.23,14.62ZM39.73,7.17a1.38,1.38,0,1,1-1.38,1.38A1.38,1.38,0,0,1,39.73,7.17Zm12.76,0a1.38,1.38,0,1,1-1.38,1.38A1.38,1.38,0,0,1,52.48,7.17ZM56,12.76l-1.05,0-.34,0-.59,0-.39,0-.43-.05-.39-.07-.31-.06-.39-.1-.21-.05-.39-.13-.11,0L51,12h0c-1.14-.55-1.3-1.19-1.32-1.29a4.18,4.18,0,0,1,.06-.71c0-.05,0-.1,0-.15l0-.14a2.87,2.87,0,1,0,4.33-3.43l.22-.06.28-.07L55,6,55.23,6l.28,0,.25,0,.25,0,.24,0h.11l.3,0a13.59,13.59,0,0,1,2.8,7ZM46.1,1.5a15.19,15.19,0,0,1,7.46,1.7H53.4a10.82,10.82,0,0,0-1.1,0l-.3,0-.78.08-.38.06c-.29.05-.58.12-.85.19l-.39.12-.49.16L48.73,4l-.62.27-.36.18-.31.17L47,4.83l-.3.19-.23.16-.26.19-.1.07L46,5.34l-.2-.14L45.53,5l-.19-.12-.6-.35-.18-.1-.38-.19-.26-.12L43.5,4,43,3.79l-.6-.19L42,3.48l-.44-.1-.68-.11-.48-.05-.73,0h-1A15.19,15.19,0,0,1,46.1,1.5ZM35.53,5.8l.43,0,.12,0,.36,0,.23,0L37,6l.27.05.3.06.29.07.21.05a2.87,2.87,0,1,0,4.33,3.42l0,.07c0,.07,0,.14.06.22a4.12,4.12,0,0,1,.06.71s-.21,1.63-4.32,2c-.59.06-1.26.09-2,.09H32.74A13.6,13.6,0,0,1,35.53,5.8ZM27.58,23l0,0,.38.36.08.07.44.39.09.08.6.48.14.11L30,25l.11.08.83.54.2.12c.29.17.59.34.9.51l.08,0c.34.18.7.35,1.07.53l.27.12c.39.17.78.34,1.21.5l.82.29.14,0,.74.23.24.06.69.18.33.07.67.14.39.07.67.11.44.05.67.08.5,0,.67,0h1.22c.45,0,.91,0,1.38,0l.23,0c.4,0,.8-.06,1.21-.1l.52-.07,1-.14.61-.11,1-.19L49.4,28l1-.25.69-.2,1-.33.69-.24,1.13-.43.65-.26.17-.07-.14.39c-.13.35-.26.7-.4,1s-.32.82-.48,1.23l-.42,1c-.17.4-.34.79-.51,1.17l-.45,1q-.26.57-.54,1.12l-.47.94-.56,1.08-.49.9-.59,1-.52.86-.62,1-.54.82-.66.94-.56.78-.69.9-.58.73-.72.86-.59.69c-.25.28-.5.55-.76.82l-.6.63c-.26.27-.53.53-.8.79l-.61.58c-.28.26-.57.5-.85.75l-.61.53c-.3.25-.61.49-.92.73l-.59.46c-.35.26-.7.5-1.06.75l-.5.35q-.79.53-1.61,1a32.07,32.07,0,0,1-16.11,4.58A2,2,0,0,1,17.64,56a3.74,3.74,0,0,1-.39-.51c-.05-.08-.09-.17-.14-.25s-.14-.23-.2-.36-.09-.21-.13-.32-.11-.25-.16-.39-.07-.22-.11-.33-.1-.29-.14-.45-.06-.26-.1-.39-.08-.3-.11-.45-.06-.3-.09-.44-.06-.29-.09-.44,0-.31-.07-.47,0-.3-.07-.45,0-.31-.05-.47,0-.32-.05-.48,0-.33,0-.49,0-.3,0-.45,0-.32,0-.48,0-.3,0-.45,0-.31,0-.47,0-.29,0-.44,0-.32,0-.48,0-.26,0-.39,0-.3,0-.45,0-.25,0-.36,0-.33,0-.5,0-.17,0-.24,0-.32,0-.47v-.19c0-.17,0-.32,0-.46v-.09A31.25,31.25,0,0,1,27.58,23ZM13.15,69.54c-2.87,1.54-4.72,1.67-5.64,1.58l1-2a.75.75,0,0,0-1.19-.87A6.25,6.25,0,0,1,1.93,69.7l3.72-6.2a.75.75,0,0,0-1.15-.94,4.67,4.67,0,0,1-2.35,1.23l11.93-17.9s0,0,0,0h0c0,.27,0,.55,0,.84V47c0,.29,0,.59,0,.89v.05c0,.32,0,.65.05,1l0,.23q0,.43.07.87l0,.17q.05.5.12,1l0,.23q.06.42.14.84l0,.22c.07.33.14.65.22,1l.05.18q.11.39.23.76l.08.22c.1.29.22.57.34.84l.05.1a7.11,7.11,0,0,0,.36.66l.12.18a5,5,0,0,0,.49.63,3.49,3.49,0,0,0,2.64,1.2,33.59,33.59,0,0,0,16.88-4.79q.84-.5,1.66-1l.54-.38c.36-.25.72-.5,1.07-.76l.62-.49c.31-.24.63-.49.94-.74l.65-.56c.29-.25.58-.5.86-.76l.64-.62c.27-.26.55-.52.82-.8l.63-.67c.26-.28.52-.55.78-.84L45.9,45c.25-.29.5-.58.74-.88l.6-.76c.24-.3.47-.61.71-.92l.58-.8c.23-.32.45-.64.68-1l.56-.85.64-1,.53-.89.61-1.06.51-.93.58-1.11.49-1,.55-1.15.47-1q.26-.59.52-1.19l.44-1.06c.17-.41.33-.82.49-1.24s.28-.73.42-1.11l.16-.42.07.23c0,.17.09.35.13.53.08.38.15.78.2,1.2,0,.11,0,.23,0,.35,0,.49.08,1,.08,1.52,0,8.53-16,21.5-16.7,22.07L23,63.9C22.86,64,17.92,67,13.15,69.54Zm19.13-5.67a.75.75,0,0,0-.77,0L28.43,66V64.53a.75.75,0,0,0-1.17-.62L24.18,66v-1L40.85,53.81l.05,0c.71-.56,17.29-13.86,17.29-23.26,0-.56,0-1.08-.08-1.6,0-.12,0-.23,0-.35-.06-.49-.13-1-.23-1.42v0a12.37,12.37,0,0,0-.43-1.49l0-.05a10.43,10.43,0,0,0-7.48-6.65h0l.08,0,.33-.19.11-.07.18-.11.06,0,.09-.06,2-1.31c.51,0,1,0,1.44-.09l.43,0,.84-.11.43-.07.7-.14.36-.09.66-.19.23-.07q.41-.14.75-.3l.16-.08.46-.24.19-.12.32-.21.16-.12.25-.22.09-.07c2,4.25,2.16,12.69,2.16,12.77,0,8.72-3.85,17.12-11.43,25a60.81,60.81,0,0,1-5.48,5,55.3,55.3,0,0,1-6.81,4.78l-1.42.85h0L34.38,65h0l-1.7,1V64.53A.75.75,0,0,0,32.29,63.87Zm3.63,2,1.22-.73.05,0,8.5,5.67h0a.74.74,0,0,0,.27.11,27.68,27.68,0,0,1,3.36.76c2.46.74,3,1.42,3.17,1.68s.3.6.43.91l.06.15-.11-.1-.18-.17L52.51,74l-.22-.18L52,73.6l-.26-.18-.33-.19-.3-.16-.4-.17-.34-.14-.47-.14-.37-.11c-.18,0-.38-.07-.58-.1l-.37-.06c-.28,0-.58,0-.88-.05h-.17a.75.75,0,0,0-.75.72v.24s0,.08,0,.13v.08c0,.05,0,.1,0,.16v.11c0,.06,0,.12,0,.18s0,.09,0,.13v.76l0,.26v.17l0,.3,0,.16c0,.12,0,.23,0,.35l0,.14q0,.25.08.5l0,.13c0,.13,0,.25.07.38l0,.2.07.32.06.23.08.29.07.25.05.18h0l-.07-.06-.26-.22-.11-.11L46.86,78l-.1-.12a4.78,4.78,0,0,1-.3-.43l0-.06c-.08-.14-.16-.29-.24-.46l-.08-.18c-.06-.14-.12-.29-.17-.44l-.07-.2c-.07-.22-.14-.46-.19-.71A11.39,11.39,0,0,1,45.44,73a.75.75,0,0,0-.31-.61ZM48.77,77.58l-.05-.22q-.05-.23-.1-.46l0-.19c0-.2-.07-.4-.1-.6V76q0-.28-.07-.54l0-.22c0-.12,0-.24,0-.35l0-.21c0-.11,0-.21,0-.31v-.17c0-.14,0-.28,0-.4h0a6.8,6.8,0,0,1,.9.15l.2,0a6.09,6.09,0,0,1,.76.25l.08,0a5.52,5.52,0,0,1,.59.3l.12.07a5.38,5.38,0,0,1,.52.37l0,0-2.68,2.68Z"/><path class="cls-1" d="M37.6,21.34a.75.75,0,0,0,.24-1.46l-4.25-1.42a.75.75,0,1,0-.47,1.42l4.25,1.42A.75.75,0,0,0,37.6,21.34Z"/><path class="cls-1" d="M42.09,24.13l-4.25-1.42a.75.75,0,0,0-.47,1.42l4.25,1.42a.75.75,0,1,0,.47-1.42Z"/><path class="cls-1" d="M26,29.81l4.25,1.42a.75.75,0,0,0,.47-1.42L26.5,28.38A.75.75,0,1,0,26,29.81Z"/><path class="cls-1" d="M34.53,31.23l4.25,1.42a.75.75,0,0,0,.47-1.42L35,29.8a.75.75,0,1,0-.47,1.42Z"/><path class="cls-1" d="M43,32.64l4.25,1.42a.75.75,0,0,0,.47-1.42l-4.25-1.42A.75.75,0,0,0,43,32.64Z"/><path class="cls-1" d="M21.77,35.48,26,36.89a.75.75,0,0,0,.47-1.42l-4.25-1.42a.75.75,0,0,0-.47,1.42Z"/><path class="cls-1" d="M34.53,38.31A.75.75,0,0,0,35,36.89l-4.25-1.42a.75.75,0,0,0-.47,1.42Z"/><path class="cls-1" d="M43.51,38.31l-4.25-1.42a.75.75,0,1,0-.47,1.42L43,39.73a.75.75,0,0,0,.47-1.42Z"/><path class="cls-1" d="M17.52,41.15l4.25,1.42a.75.75,0,1,0,.47-1.42L18,39.72a.75.75,0,1,0-.47,1.42Z"/><path class="cls-1" d="M30.51,44a.75.75,0,0,0,.24-1.46L26.5,41.14A.75.75,0,1,0,26,42.56L30.28,44A.75.75,0,0,0,30.51,44Z"/><path class="cls-1" d="M39.26,44,35,42.56A.75.75,0,1,0,34.53,44l4.25,1.42A.75.75,0,0,0,39.26,44Z"/><path class="cls-1" d="M23.66,48.23l-4.25-1.42a.75.75,0,0,0-.47,1.42l4.25,1.42a.75.75,0,1,0,.47-1.42Z"/><path class="cls-1" d="M32.17,49.64l-4.25-1.42a.75.75,0,0,0-.47,1.42l4.25,1.42a.75.75,0,1,0,.47-1.42Z"/><path class="cls-1" d="M49.18,22.72,44.92,21.3a.75.75,0,0,0-.47,1.42l4.25,1.42a.75.75,0,0,0,.47-1.42Z"/></g></g></svg>