<svg xmlns="http://www.w3.org/2000/svg" viewBox="0 0 133.31 78.1"><defs><style>.cls-1{fill:#a1acb2;}</style></defs><title>bird2</title><g id="Layer_2" data-name="Layer 2"><g id="Layer_1-2" data-name="Layer 1"><path class="cls-1" d="M113.85,36.82h0l-1.28-.74-.53-.29c-.14-1.77-1.61-7.56-14.76-10.21h-.09s-2.25-.33-6.15-5.86A36,36,0,0,0,80.57,7.3h0A35.83,35.83,0,0,0,58.91.06h0A104,104,0,0,0,26,4.35a.75.75,0,0,0-.3,1.25A50.68,50.68,0,0,0,32.94,11a36.4,36.4,0,0,0-4.31,5.36L9.49,10A.75.75,0,1,0,9,11.44l27.57,9.19,8.56,2.86.17.19a6.17,6.17,0,0,1,1.09,1.92A6.26,6.26,0,0,1,46.73,27h0a6.94,6.94,0,0,1,0,.73l0,.15,0,.11,0,.13h0L9.49,15.69A.75.75,0,1,0,9,17.11l16.36,5.45A36.08,36.08,0,0,0,23.24,30L.17,58.45A.75.75,0,0,0,0,59c.42,3.16,1.61,5.42,3.54,6.72a7.33,7.33,0,0,0,4.11,1.19,7.63,7.63,0,0,0,1.79-.2.75.75,0,0,0,.41-.27L32.4,36.86A40.13,40.13,0,0,0,44.55,29l1.39.46a1.55,1.55,0,0,1-1.21.41.75.75,0,0,0-.8.75,2.34,2.34,0,0,0,.63,1.56,20.76,20.76,0,0,0-2,5.39.75.75,0,0,0,.64.88,56,56,0,0,0,7.47.51,41.47,41.47,0,0,0,15.58-2.74l.42.14a.74.74,0,0,0,.1.33,5.93,5.93,0,0,0,3.45,2.5,3.8,3.8,0,0,0,.69.06,4.19,4.19,0,0,0,2.26-.72l10.07,3.36c2,2,7.75,7,14.56,7a13.25,13.25,0,0,0,3.72-.53H104c.27.21.82.63,1.57,1.24,4.83,3.92,20.61,17.51,20.61,27.77a.75.75,0,0,0,.75.75.74.74,0,0,0,.24,0,9.59,9.59,0,0,0,6.18-9.21C133.31,61.27,129.21,46,113.85,36.82Zm-.77,1.29h0c14.79,8.85,18.74,23.48,18.74,30.73a9.73,9.73,0,0,1-.13,1.58v-.1c0-.23-.06-.46-.08-.69s-.08-.69-.13-1-.08-.48-.12-.72-.11-.64-.17-1-.1-.49-.15-.73-.13-.61-.2-.91-.12-.48-.18-.72-.15-.58-.23-.87-.14-.47-.21-.7-.17-.56-.26-.84l-.23-.68-.29-.82-.25-.66-.32-.8-.27-.64-.34-.78-.28-.61-.37-.76-.29-.58-.4-.75-.3-.55-.43-.75-.29-.51-.47-.76-.27-.44-.55-.83-.22-.33q-.78-1.14-1.59-2.19l-.2-.25-.61-.77-.28-.34-.53-.64-.31-.36-.5-.57-.32-.36-.48-.53-.32-.34-.47-.49-.33-.33-.45-.45-.33-.32-.44-.42-.32-.3-.43-.39-.3-.27-.42-.38-.28-.24-.41-.35-.27-.23-.39-.32-.25-.2-.38-.3-.22-.17-.36-.28L113,39l-.36-.27-.14-.1-.45-.33a.75.75,0,0,0-.22-.11h-.07l-.14,0h0l-.17,0-.09,0a.74.74,0,0,0-.23.14c-.44.4-.85.81-1.23,1.22-.13.14-.24.28-.36.42s-.48.57-.7.85-.24.34-.36.51-.37.53-.54.8l-.32.53c-.16.27-.3.53-.44.8l-.27.52c-.13.27-.25.54-.37.81s-.14.32-.21.49-.22.57-.32.85l-.14.39c-.13.4-.25.79-.35,1.17h0l-.78-.61-2.56-3.84,1.2-3.61,5.1-2.55.14-.07h2.47l.72.4ZM99.89,35.22v0c-.08-.19-.15-.39-.21-.6l-.06-.21c0-.15-.08-.31-.12-.48l0-.25c0-.17-.06-.35-.08-.54s0-.16,0-.24,0-.06,0-.09l1.26,0c3.12.14,4.89.45,5.88,1l.06,0,.24.16.19.15.09.08a2.33,2.33,0,0,1,.63,1.56l-2.93,1.46-.06,0a2.28,2.28,0,1,0-.5.25l-1.46.73,0,0-.09,0-.15-.07-.07,0-.25-.15-.08-.05-.2-.14-.11-.08-.2-.16-.11-.09-.26-.24-.06-.05-.31-.34-.09-.12-.22-.29-.1-.16-.19-.32-.09-.16C100,35.57,100,35.4,99.89,35.22ZM86.58,15.39l.23.39.58,1,.39.64.42.69c.23.38.47.74.7,1.09l.11.16q.4.61.8,1.17C93.91,26.39,96.48,27,97,27.06c11.09,2.25,13.1,6.72,13.46,8.43h-1.3v0c-.25-2.17-1.62-3.22-4.34-3.74h-.07l-.81-.13-.27,0-.64-.07-.57-.05-.37,0c-1.77-.13-3.88-.16-6.4-.16-.52,0-1.06,0-1.64-.05s-1-.08-1.54-.14L92.06,31,91,30.84l-.49-.09-1.05-.21-.39-.08c-.47-.11-.93-.22-1.38-.34l-.14,0-1.18-.35L86,29.6l-.89-.3-.37-.13-.9-.34-.24-.1-1.07-.45-.16-.07-.81-.37-.27-.13-.63-.31-.23-.12-.63-.33-.11-.06L79,26.52l-.11-.07-.29-.17.12-.1.4-.35.24-.23.43-.44.26-.28c.16-.18.32-.37.48-.57l.23-.29a12.34,12.34,0,0,0,.69-1c.1-.17.2-.35.3-.54l.09-.18.2-.4.1-.23.17-.4.1-.26.15-.43.09-.27c0-.16.09-.32.13-.48l.07-.26c.05-.21.09-.43.13-.65l0-.13q.07-.4.11-.83c0-.08,0-.16,0-.23s0-.42,0-.64,0-.22,0-.33,0-.39,0-.6,0-.25,0-.37,0-.4,0-.61,0-.26,0-.39-.06-.44-.09-.66,0-.25-.06-.37-.11-.54-.17-.81c0-.09,0-.18-.06-.27q-.14-.55-.31-1.13l-.09-.26c-.08-.26-.17-.51-.26-.78A34.89,34.89,0,0,1,86.58,15.39ZM75,25.61l-.27,0-.84.12-.18,0L73,26l-.31.09-.63.2-.32.12c-.23.09-.45.19-.68.3l-.24.11a7.4,7.4,0,0,0-.86.53l-.17.14a6.4,6.4,0,0,0-.61.53l-.24.26a6,6,0,0,0-.46.58c0,.06-.1.11-.14.18h0a5.71,5.71,0,0,1-.29-.67L68,28.13q-.09-.26-.15-.52l0-.16c0-.21-.08-.43-.1-.63,0,0,0-.08,0-.12s0-.34,0-.5,0-.11,0-.16,0-.33,0-.49,0,0,0-.06c0-.17,0-.34.06-.49l0-.14c0-.11,0-.21.06-.3l0-.11c0-.11.05-.22.07-.3v0l.23,0h0l.39-.07.11,0,.36,0,.14,0,.48,0h.07l.58,0h.84l.57.05h.1l.67.11.19,0,.5.13.21.07c.2.07.39.14.59.22l.09,0a6.4,6.4,0,0,1,.64.34l.18.11q.23.15.46.32l.18.14.1.1h-.1Zm-5.27,7,0,0,1,.69,0,.08,0,.07-.16.27v0c-.07.1-.15.21-.24.33l-.09.1-.23.25-.13.12-.3.24-.13.09a3.58,3.58,0,0,1-.51.29l-.09,0a3.67,3.67,0,0,1-.43.14l-2-.67h0L62,33.19l-8.05-2.68V26.42L68,31.12c.15.17.32.32.48.48s.18.19.28.28A8.94,8.94,0,0,0,69.75,32.59Zm-7.91-9h.1q.72,0,1.51.1h0c.53,0,1.08.11,1.67.19l.38.05.87.13,0,.08c0,.09,0,.19-.06.3l0,.17c0,.1,0,.2,0,.31l0,.21c0,.11,0,.22,0,.33s0,.15,0,.23,0,.24,0,.36,0,.16,0,.24,0,.27,0,.41,0,.15,0,.23,0,.35.08.53,0,.09,0,.14q.07.34.17.69l.05.16c.06.18.12.36.19.54l0,.06L54.27,24.94C55.08,24.38,57.18,23.42,61.84,23.62ZM50.2,30.29A4.55,4.55,0,0,0,51,28.4a3.74,3.74,0,0,0,.06-.66V24.4h0l.07,0A2,2,0,0,1,52,25l.07.08a1.74,1.74,0,0,1,.14.25,1.59,1.59,0,0,1,.11.23h0a2.45,2.45,0,0,1,.11.76v4.15l-.06.11c-.12.18-.52.6-1.73.66L50,30.57ZM58.86,1.56A34.37,34.37,0,0,1,79.52,8.39l.26.55c.1.21.2.42.29.62s.16.39.24.59.17.4.24.6.13.38.2.56.14.39.2.57.1.36.15.54.11.37.15.54.08.35.11.53.08.34.11.51.05.34.08.51.05.32.07.47,0,.33,0,.49,0,.3,0,.44,0,.32,0,.48,0,.27,0,.4,0,.32,0,.48,0,.24,0,.36,0,.31-.06.47,0,.22,0,.33-.06.3-.09.45,0,.2-.06.29-.08.29-.12.43,0,.18-.07.26-.09.28-.14.42l-.08.24c-.06.15-.12.3-.18.44l-.07.17c-.07.16-.15.32-.23.47l0,.09q-.14.27-.29.52a10.7,10.7,0,0,1-.66,1l-.2.25c-.17.21-.33.4-.5.58l-.19.2a10.83,10.83,0,0,1-1.15,1l0,0-.07-.07c-.13-.16-.27-.3-.41-.44a8.8,8.8,0,0,0-6.44-2.43,13.87,13.87,0,0,0-3.2.38l-1.39-.28-1.36-.27-1.4-.32-1.33-.3-1.33-.34-1.3-.33L58,20.53l-1.26-.36-1.19-.37-1.24-.39L53.21,19,52,18.63l-1-.38-1.17-.43-1-.38L47.67,17l-.94-.4-1.06-.45-.9-.41-1-.45L43,14.9l-1-.48L41.22,14l-1-.49-.7-.37-.89-.48-.57-.32-.92-.51-.42-.25-1-.56-1.28-.79a60.1,60.1,0,0,1-6.75-4.88A103,103,0,0,1,58.86,1.56ZM34.22,11.85l.53.32.38.23,1.26.74.26.15,1.1.62.5.27,1,.53.53.28,1.29.65.28.14,1.63.78.55.25,1.21.55.65.28,1.32.56.56.23,1.91.75.5.19,1.54.56.73.26,1.47.5.71.24,2.13.66.17,0,1.9.54-.32,0-.5.06-.55.09-.43.08-.48.11-.37.1-.41.13-.32.11-.35.14-.26.11-.3.15-.2.11-.26.16-.15.09-.25.19-.07.05h0a3.8,3.8,0,0,0-2-1.11l0-.09c0-.08,0-.17-.06-.26l0-.18c0-.09-.06-.19-.1-.28l-.08-.19c0-.11-.1-.21-.17-.31l-.09-.16a3.05,3.05,0,0,0-.36-.46,3.47,3.47,0,0,0-2.61-1,5.48,5.48,0,0,0-.88.07l-.24,0a4.34,4.34,0,0,0-.5.13l-.22.08a3.61,3.61,0,0,0-.41.2l-.14.08a3.32,3.32,0,0,0-.42.31l-.06.06a3.09,3.09,0,0,0-.25.26l-.08.1-.14.19-.05.08,0,0-14-4.67A35,35,0,0,1,34.22,11.85ZM26.79,23l2.86,1-.09.07q-.57.43-1.11.87l-.21.17c-.35.3-.69.59-1,.89l-.16.15c-.33.3-.65.61-.95.9l-.06.06-.82.84-.06.06A34.46,34.46,0,0,1,26.79,23Zm-18,42.29a6.27,6.27,0,0,1-4.45-.83c-1.5-1-2.45-2.81-2.84-5.36L23.77,31.67l.14.16.25.29.51.57L25,33c.2.21.42.42.63.62l.23.22c.3.27.61.54.94.79l.21.15c.26.2.53.39.81.57l.36.22c.24.15.49.29.75.42l.41.2c.28.13.56.24.85.34l.36.13.12,0Zm23-29.87c-.2,0-.4-.09-.6-.15l-.44-.12c-.25-.08-.48-.19-.72-.29l-.34-.14a10.56,10.56,0,0,1-.95-.52l-.05,0c-.33-.2-.64-.42-.95-.66l-.24-.2c-.22-.17-.43-.34-.63-.53l-.3-.29-.5-.48-.31-.33-.42-.45-.3-.36-.26-.31,0,0,.33-.38.1-.12.49-.54.12-.13.53-.56.13-.13.7-.7.17-.17.75-.7.08-.07.87-.76.21-.18c.31-.26.62-.51.95-.76l0,0c.31-.24.63-.46,1-.68l.14-.09L43,28.43A40.11,40.11,0,0,1,31.87,35.46ZM47.8,29.35a5.36,5.36,0,0,0,.46-1.52.74.74,0,0,0,0-.09,8.42,8.42,0,0,0-.05-1,7.78,7.78,0,0,0-.38-1.68h0q-.11-.33-.26-.64a7.69,7.69,0,0,0-1.1-1.75h0c-.12-.15-.24-.28-.36-.4s-.28-.28-.4-.39a2.71,2.71,0,0,1,1.8-.53,2,2,0,0,1,1.52.53,2.39,2.39,0,0,1,.56,1.56v4.25a2.27,2.27,0,0,1,0,.4A3.07,3.07,0,0,1,49,29.41a4.65,4.65,0,0,1-.56.63h0a4.15,4.15,0,0,1-2.33,1.2.86.86,0,0,1-.3,0h0A3.31,3.31,0,0,0,47.8,29.35ZM44.2,37a20.7,20.7,0,0,1,1.74-4.29h.16a2.83,2.83,0,0,0,.5-.05h.05a5.09,5.09,0,0,0,1.45-.56l.06,0a6.86,6.86,0,0,0,.67-.44l.07,0,.92.92a.75.75,0,0,0,.53.22c.23,0,.43,0,.63,0l.17,0,.4-.06.15,0,.43-.12h0a3.52,3.52,0,0,0,.39-.16l.1-.05.24-.14.09-.06.24-.19,0,0h0l10.69,3.56A45.44,45.44,0,0,1,44.2,37Zm26.26.65a3.43,3.43,0,0,1-1.63-.88,5,5,0,0,0,.61-.22h0a4.94,4.94,0,0,0,.68-.36l.18-.13c.14-.1.28-.2.41-.31l.16-.14q.2-.19.37-.37l.07-.08c.13-.15.25-.3.35-.44l.08-.12.19-.29.06-.11,0-.08.53.35,1.28.85.2.13-.25.31a8.33,8.33,0,0,1-.63.72,5.72,5.72,0,0,1-.64.56A2.67,2.67,0,0,1,70.46,37.67Zm4.58-1,.32-.4,3,2,.21.14.27.18.53.35-4.87-1.62Q74.77,37.05,75,36.71Zm26.34,10.12a.75.75,0,0,0-.22,0c-7.75,2.33-15-4.16-17-6.21-.4-.4-.62-.65-.62-.66a.74.74,0,0,0-.14-.13L81.5,38.61l-5.88-3.93-3.41-2.26h0l-1.6-1.05h0a7.49,7.49,0,0,1-.77-.58l-.21-.2-.26-.26.08-.18.15-.25a4.44,4.44,0,0,1,.26-.37L70,29.3a4.71,4.71,0,0,1,.34-.35l.15-.15A5.81,5.81,0,0,1,71.68,28l.14-.06.5-.22.19-.07.47-.16.2-.06.47-.12.18,0,.5-.09.13,0,.57-.07h0c.41,0,.78-.06,1.1-.07H77c.23.15.67.43,1.28.79h0l.67.38.21.11.6.32.32.16.6.3.4.19.64.29.46.2.68.28.51.2.72.27.56.2.77.26.6.19.82.24.63.17.88.22L89,32l1,.19.63.12,1.1.16.55.08c.56.06,1.13.12,1.71.15l1,0c1,0,1.87,0,2.71,0h.12c0,.06,0,.1,0,.16A10.49,10.49,0,0,0,98,34.23v0a8.73,8.73,0,0,0,.33,1.13l.08.22a7.53,7.53,0,0,0,1.71,2.64,6.93,6.93,0,0,0,1.72,1.24l-1.2,3.6a.75.75,0,0,0,.09.65l2.06,3.09Zm26.2,29.37c-.46-4.25-3.72-13.6-20.73-27.49l.07-.31.12-.47c.05-.19.11-.39.17-.59l.16-.5c.07-.2.15-.41.23-.62s.13-.35.2-.52.19-.43.29-.65.16-.35.24-.53.24-.45.36-.68.18-.34.28-.51.3-.48.46-.71.2-.32.32-.48.4-.52.6-.78.2-.26.31-.39c.33-.38.68-.76,1.06-1.13.4.3.87.66,1.38,1.07l.21.16.35.29.26.21.37.32.27.23.4.35.28.25.4.36.3.28.38.36.34.33.37.37.37.37.39.4.37.38.4.43.37.4.38.43.39.44.37.44.4.48.37.46.41.5.37.48.4.52.37.51.39.54.35.52.39.58.35.54.38.6.34.57.36.61.33.59.35.63.31.6.34.67.29.61.33.7.27.63c.1.24.21.48.31.72s.17.44.26.66.19.48.28.73.16.46.24.69.17.5.26.75.14.47.21.7.16.52.23.78.12.47.18.71.14.54.21.81.11.49.16.73.12.55.18.83.09.5.13.75.1.57.14.85.07.51.1.77.08.58.11.87,0,.53.07.79.05.6.07.9,0,.54,0,.8,0,.54,0,.81A8.46,8.46,0,0,1,127.58,76.2Z"/></g></g></svg>