<svg xmlns="http://www.w3.org/2000/svg" viewBox="0 0 55.36 139.82"><defs><style>.cls-1{fill:#a1acb2;}</style></defs><title>bird3</title><g id="Layer_2" data-name="Layer 2"><g id="Layer_1-2" data-name="Layer 1"><path class="cls-1" d="M54.61,57.53h-8.7c.06-.59.1-1.2.14-1.81,0-.07,0-.13,0-.2q.06-1.07.09-2.16h8.45a.75.75,0,0,0,0-1.5H46.17A75.66,75.66,0,0,0,45,39.15a109.17,109.17,0,0,0-3.83-15.1A70.62,70.62,0,0,0,38.6,16.5a55.14,55.14,0,0,0-3.27-6.88h0l-.44-.74h0a27.18,27.18,0,0,0-3.39-4.59,12.24,12.24,0,0,0-5-3.41c-8.41-2.73-13.61,1.72-14.72,2.8C2.17,3.83.28,6.56.1,6.88A.75.75,0,0,0,.6,8l13.8,2.76a21.18,21.18,0,0,1,1.17,3.42,12.94,12.94,0,0,1,0,7l0,.09A26.89,26.89,0,0,0,14.17,31.4a19.35,19.35,0,0,0,.44,2.95,27,27,0,0,0,7.59,13l.4,1.35-5,1.25H12.09a1.25,1.25,0,0,0-1.25,1.25,1.22,1.22,0,0,0,.22.67H2.17a.75.75,0,1,0,0,1.5H19.32a2.26,2.26,0,0,1,.23.31c.53.87.51,2.2,0,3.86H2.17a.75.75,0,1,0,0,1.5H19.62a1.21,1.21,0,0,0,.55.43A1.24,1.24,0,0,0,21.59,59H25.7l3.23,10.76.86,2.88a.75.75,0,0,0,1,.48,14.25,14.25,0,0,0,1.8-.95v39.94a.75.75,0,0,0,.27.57,4.77,4.77,0,0,0,1.86.93v9.58a28.07,28.07,0,0,0-5.18,9.08h0a9.4,9.4,0,0,0-.49,2.51.74.74,0,0,0,0,.17,6.45,6.45,0,0,0,6.4,4.83,7.12,7.12,0,0,0,2.13-.33,7.11,7.11,0,0,0,2.13.33,6.45,6.45,0,0,0,6.4-4.83.75.75,0,0,0,0-.19,10.18,10.18,0,0,0-.51-2.48,28.4,28.4,0,0,0-5.16-9.1v-9.51a3.48,3.48,0,0,0,1.91-1,.75.75,0,0,0,.21-.52V69.82c.48-.83,2.28-4.31,3.13-10.8h8.88a.75.75,0,0,0,0-1.5Zm-9.95-6.69-.29-.14-.19-.1a7.86,7.86,0,0,1-.93-.58l-.1-.08-.23-.18-.09-.07-.16-.14-.05-.05-.11-.11,0,0,0-.05,0,0-.09-.09-.07,0,0,0,0,0-.05,0L42,49l-.07,0H41.8l-.12,0h-.07l0,0-.12.06-.08,0h0A14.77,14.77,0,0,1,37,51.91a9.17,9.17,0,0,1-6.71,0,11.3,11.3,0,0,1-1.19-.54l-.39-.23c-.24-.14-.49-.27-.72-.43l-.43-.31c-.2-.14-.4-.28-.59-.42l-.42-.35-.5-.43-.39-.37-.44-.42L24.89,48l-.37-.4-.3-.36-.31-.37-.24-.31-.21-.28L19.77,34c1.53-1.8,3-3.45,4.4-4.91.43-.45.85-.88,1.27-1.3l.28-.27,1.07-1,.1-.1c.83-.78,1.61-1.46,2.33-2a17.53,17.53,0,0,1,2.12-1.48l0,0a7.28,7.28,0,0,1,1-.47l.05,0,.31-.1.1,0,.22,0h.08l.24,0a10.89,10.89,0,0,1,1.3.08l.14,0a9.84,9.84,0,0,1,1.08.21l.17,0a9.16,9.16,0,0,1,.91.29l.15.06c.27.11.53.23.76.35l.1.05c.23.13.45.26.64.38h0c.19.13.35.25.5.37l.05,0,.34.3.05.05.19.2,0,0a107.5,107.5,0,0,1,3.74,14.77A75.42,75.42,0,0,1,44.66,50.84ZM39.9,88.51l-.2,0c-.41.06-.82.11-1.23.13h-.11V67.22c.13-.15.23-.32.35-.47.34-.42.67-.85,1-1.3.14-.21.28-.43.41-.64.29-.46.58-.92.84-1.4.05-.09.11-.17.16-.27V88.24l-.18,0Q40.42,88.42,39.9,88.51Zm3.83,44.11-.13.11a6.3,6.3,0,0,1-.72.48l-.18.1a6.26,6.26,0,0,1-.64.3l-.2.08-.11,0c0-.15-.07-.32-.11-.5l0-.12c-.06-.24-.13-.5-.22-.79s-.11-.35-.18-.55l-.05-.14-.18-.48-.09-.22-.19-.46-.13-.29-.21-.46-.16-.34-.23-.47-.2-.39-.26-.48-.25-.43-.29-.49-.29-.47-.19-.3c.38-.56.8-1.12,1.23-1.68a27,27,0,0,1,4.33,7.63C44,132.42,43.84,132.52,43.73,132.62Zm-4.33.06L39,133l-.25.17-.45.25-.23.12a6.29,6.29,0,0,1-.72.28,6.2,6.2,0,0,1-3.16.17,6.35,6.35,0,0,1-.91-.26l-.29-.13c-.19-.08-.38-.16-.56-.26l-.32-.19c-.16-.1-.32-.2-.47-.32l-.3-.25-.25-.23a26.7,26.7,0,0,1,4.35-7.61c.54.69,1,1.39,1.5,2.08.21.31.4.62.58.91l.17.29.34.58.18.33.26.48.17.33.21.43.15.31.18.39.13.29.14.35.11.27.11.31.09.25v0l-.16.16ZM39,123.22c-.49.61-.95,1.22-1.38,1.83-.43-.61-.89-1.22-1.37-1.83v-9.51a3.34,3.34,0,0,0,1.41-.62,4.79,4.79,0,0,0,1.34.56ZM35.5,88.54l-.2,0q-.52-.09-1-.22l-.18,0v-17l.3-.24c.3-.22.59-.46.88-.69l.46-.39q.42-.37.82-.76l.28-.26V88.68h-.11C36.32,88.65,35.91,88.61,35.5,88.54Zm-4.3-21.12-.49.39-.66.51L27,58.06h0l-1.7-5.67h0l-.68-2.26a1.19,1.19,0,0,0,.06-.19l.06.06.63.57.44.37c.23.19.48.37.73.56l.47.34c.28.19.58.37.88.54l.44.26a12.77,12.77,0,0,0,1.43.66A11,11,0,0,0,32.3,54l.34,0h.19a10.82,10.82,0,0,0,4.69-.7c.33-.13.67-.27,1-.43l.32-.16.68-.37.37-.22.64-.41.36-.25.2-.14v5.31l-.06.1-.1.15-.21.3-.1.14-.36.51c-.66.91-1.76,2.34-3.22,4A52.84,52.84,0,0,1,32.85,66C32.31,66.51,31.76,67,31.21,67.42ZM38.81,22l-.26-.15-.28-.14L38,21.62l-.33-.14-.29-.12L37,21.24l-.3-.1L36.24,21l-.3-.08-.51-.09-.3-.05-.61-.07-.26,0c-.3,0-.61,0-.93,0l-.42,0-.28.05-.17,0-.34.1-.14,0-.34.13-.18.07-.3.14-.26.13-.23.13-.38.22-.13.08-.52.34h0l-.63.45c-.1-.21-.21-.43-.3-.64s-.22-.5-.32-.75-.29-.76-.41-1.14-.17-.47-.24-.71c-.13-.43-.23-.85-.33-1.28,0-.19-.1-.38-.14-.57-.12-.61-.22-1.22-.28-1.83V9.17l.44,0,.31,0,.56.06.28.33.3.36.48.54.38.42.57.6.43.45.68.67.44.43c.29.27.6.55.91.83l.32.29c.43.37.88.74,1.34,1.11l.36.27c.35.27.7.53,1.07.79l.56.36c.28.19.56.38.85.56.75,1.88,1.33,3.6,1.73,4.88ZM22.14,13.75l-.63-.11-1-.15-.65-.08-1.16-.1-.75,0-.84,0h-.23A23.09,23.09,0,0,0,16.12,11h0l.73.12h0l.64.13.34.08.52.13.54.15.42.14L20,12l.34.13c.28.11.56.24.85.38l.28.13c.31.16.61.33.91.51l.22.13a11.53,11.53,0,0,1,1,.7l.11.08.06.05h0C23.22,14,22.67,13.86,22.14,13.75Zm-8-6.88c-.14-.16-.27-.32-.39-.48l-.12-.16a5.89,5.89,0,0,1-.39-.61l-.06-.13A4,4,0,0,1,13,5.12a50.11,50.11,0,0,1,10,.62l.63.12.78.15.43.1a27.2,27.2,0,0,1,6.06,2l0,0-.61-.11h0A23,23,0,0,0,22,7.92h0l-.07,0h0a.73.73,0,0,0-.2.1.78.78,0,0,0-.11.06.76.76,0,0,0-.12.17.73.73,0,0,0-.08.11.75.75,0,0,0,0,.68L23,11.7l-.16-.08a16.31,16.31,0,0,0-2.55-1.16l-.08,0a19.92,19.92,0,0,0-2.58-.72c-.32-.2-.62-.41-.91-.62L16.52,9l-.7-.54-.27-.22L15,7.77l-.25-.24-.42-.43ZM35.89,14.5c-.34-.25-.67-.51-1-.77l-.54-.45c-.33-.28-.64-.56-1-.84L33,12.05c-.42-.4-.82-.79-1.2-1.17l0,0c-.39-.4-.74-.78-1.08-1.15l-.06-.07.1,0,.66.16c.36.08.72.16,1.09.27l.64.2c.35.11.7.21,1.06.34.71,1.26,1.4,2.65,2.07,4.14ZM25.51,13.05,23.23,9.24a21.25,21.25,0,0,1,2.29-.12Zm6.21-6.18-.29-.13c-.34-.16-.68-.32-1-.47l-.51-.21c-.42-.17-.85-.32-1.29-.47l-.39-.14c-.51-.17-1-.32-1.58-.47l-.23-.07c-.63-.16-1.28-.31-1.94-.45h0l2-2A11.27,11.27,0,0,1,30.4,5.31Q31.07,6,31.72,6.88ZM24.83,2l-2.2,2.2-.15,0-.54-.08-1.62-.2-.13,0c-.6-.06-1.18-.11-1.74-.14h-.19l-.66,0-.31,0-.46,0c-.69,0-1.33,0-1.9,0h-.66A12.9,12.9,0,0,1,24.83,2ZM11.46,5.18l0,.12c0,.11.07.21.1.32l.08.21.15.31.1.19.2.34.1.16q.16.24.34.48l0,0,.35.42L13.1,8l.27.29.18.19.27.26.2.18.28.25.11.1L2.49,6.84C3.77,6.16,6.38,5.29,11.46,5.18ZM17,21.75l0-.09a13.59,13.59,0,0,0,.19-6.92c.54,0,1.13,0,1.75.09h.19l.81.08.31,0,.77.11.42.07.71.13.73.17.65.17c.33.09.65.19,1,.3l.4.14.6.23c0,.37.12.75.19,1.12,0,.2.06.39.1.59.14.66.3,1.31.51,2,0,.1.07.2.1.29.18.56.38,1.11.6,1.67.09.23.2.46.31.69s.27.65.43,1q-1.53,1.27-3.37,3.11l-.17.17-1.19,1.22c-1.49,1.56-3.08,3.34-4.72,5.28l-.05.07H16a17.5,17.5,0,0,1-.28-2.13A25.51,25.51,0,0,1,17,21.75ZM16.3,34.93h2.17l2.74,9.14A24.89,24.89,0,0,1,16.3,34.93Zm7.25,16.93H21.31c-.06-.07-.11-.16-.17-.22l2.19-.55Zm-1.43,5.67a7.25,7.25,0,0,0,0-4.17H24l1.25,4.17Zm8.4,12.34c.33-.24.66-.51,1-.77l.57-.45q.89-.73,1.77-1.51a54.45,54.45,0,0,0,4.31-4.33c.35-.39.68-.77,1-1.14l.31-.37.55-.67.3-.38.44-.56.24-.31.12-.16v.33l0,.09c-.21.55-.45,1.1-.7,1.63-.11.23-.23.46-.35.69s-.32.63-.5.94-.26.45-.4.67-.41.64-.62,1l-.36.53c-.35.48-.72,1-1.1,1.41s-.62.7-.95,1a21.91,21.91,0,0,1-3.17,2.7h0A18.81,18.81,0,0,1,31,71.39ZM34.1,89.8h.06q.62.15,1.25.24l.32,0c.32,0,.64.07,1,.09l.17,0v21.62a2.28,2.28,0,0,1-2.75-.05Zm-3.54,44.94a6.73,6.73,0,0,1,.12-.82,7.79,7.79,0,0,0,.87.58l.25.13a7.71,7.71,0,0,0,.76.36l.29.11a7.87,7.87,0,0,0,1.06.3,8,8,0,0,0,.91.13h.27l.37,0h.18a7.56,7.56,0,0,0,.77-.06l.32,0a7.16,7.16,0,0,0,1.92-.58l.21-.1a7.85,7.85,0,0,0,.73-.4l.06,0q.3-.19.58-.41V134c0,.13,0,.24.06.34l0,.13c0,.12,0,.22,0,.28h0a5.25,5.25,0,0,1-.45,1A4.81,4.81,0,0,1,37.35,138h0a5.52,5.52,0,0,1-1.87.31A5,5,0,0,1,30.56,134.73Zm9.21,3.58,0,0c.15-.13.28-.25.41-.39l.05-.06.3-.34.11-.14.2-.27.1-.15.16-.25.09-.14.13-.25.06-.12.13-.27,0-.07.12-.29,0-.12,0-.12v0c.21-.06.41-.12.6-.2l.09,0a7.72,7.72,0,0,0,1-.45l.21-.12a7.77,7.77,0,0,0,.85-.56,7.36,7.36,0,0,1,.13.82A4.91,4.91,0,0,1,39.77,138.32Zm1.33-26.51a2.28,2.28,0,0,1-2.75-.05V90.19l.17,0c.32,0,.64-.05,1-.09l.32,0q.63-.09,1.25-.24h.06Zm1.5-45.73V51.41l.46.29.07,0c.26.15.54.3.86.45l0,0,.63.27v.12a53.19,53.19,0,0,1-.34,5.59A37.09,37.09,0,0,1,42.6,66.08Z"/></g></g></svg>