<svg xmlns="http://www.w3.org/2000/svg" viewBox="0 0 82.88 82.88"><title>logo1</title><g id="Layer_2" data-name="Layer 2"><g id="Layer_1-2" data-name="Layer 1"><polygon points="41.44 52.02 44.39 48.08 41.44 44.94 38.49 48.08 41.44 52.02"/><path d="M54.25,51.19h.06V31.09l-8.4,9,4.23,5.4A42.63,42.63,0,0,1,54.25,51.19Z"/><path d="M41.44,0A41.44,41.44,0,1,0,82.88,41.44,41.44,41.44,0,0,0,41.44,0ZM62.31,75.19H48.54l-7.1-9.87-7.1,9.87h-15v-67h9v22H36.7l4.73,5.57,4.73-5.57h8.14v-22h8Z"/><path d="M28.63,51.19a42.48,42.48,0,0,1,4.08-5.68l4.14-5.17-8.53-9.25v20.1Z"/><polygon points="50.11 53.1 46.18 58.5 54.31 69.42 54.31 57.84 50.11 53.1"/><polygon points="28.31 57.84 28.31 69.42 36.53 58.5 32.61 53.1 28.31 57.84"/></g></g></svg>