<svg xmlns="http://www.w3.org/2000/svg" viewBox="0 0 83.88 83.88"><defs><style>.cls-1{fill:none;stroke:#000;stroke-miterlimit:10;}</style></defs><title>logo4</title><g id="Layer_2" data-name="Layer 2"><g id="Layer_1-2" data-name="Layer 1"><polygon class="cls-1" points="41.94 52.52 44.89 48.58 41.94 45.44 38.99 48.58 41.94 52.52"/><path class="cls-1" d="M54.75,51.19h.56V31.59l-8.65,9,4.1,5.15A39.21,39.21,0,0,1,54.75,51.19Z"/><path class="cls-1" d="M41.94.5A41.44,41.44,0,1,0,83.38,41.94,41.44,41.44,0,0,0,41.94.5ZM63.31,75.19H49l-7.1-9.87-7.1,9.87H20.31v-67h9v22H37.2l4.73,5.57,4.73-5.57h8.64v-22h8Z"/><path class="cls-1" d="M29.13,51.19a39.63,39.63,0,0,1,4.08-5.43l4.39-5-8.28-9.12v19.6Z"/><polygon class="cls-1" points="50.86 53.6 47.06 59 55.31 69.92 55.31 58.34 50.86 53.6"/><polygon class="cls-1" points="29.31 58.34 29.31 69.92 37.28 59 33.49 53.6 29.31 58.34"/></g></g></svg>