<svg xmlns="http://www.w3.org/2000/svg" viewBox="0 0 86.85 86.75"><title>logo6</title><g id="Layer_2" data-name="Layer 2"><g id="Layer_1-2" data-name="Layer 1"><path d="M50.32,8.84l-4.45,4.45A29.11,29.11,0,0,0,28.86,8a21.49,21.49,0,0,0-15.24,6.63Q8.33,19.87,8,25.57A11.68,11.68,0,0,0,11.36,35a14.81,14.81,0,0,0,5.84,3.84,12.59,12.59,0,0,0,6.29.29,35.39,35.39,0,0,0,7.29-2.45q4.06-1.81,9.8-4.71a88.24,88.24,0,0,1,11.19-4.87A37.25,37.25,0,0,1,62,24.9a23,23,0,0,1,9.42,1.29,24.64,24.64,0,0,1,8.84,6,26.69,26.69,0,0,1,6.6,10.4A43.42,43.42,0,0,0,43.45,0c-.91,0-1.8.08-2.69.14Z"/><path d="M29.29,76l4.45-4.45a35,35,0,0,0,8.08,3.7,40.08,40.08,0,0,0,10.15,2A31.78,31.78,0,0,0,62.8,76.08a22.7,22.7,0,0,0,9.84-6q6.19-6.19,6.72-12.37T74.64,46.32A13.71,13.71,0,0,0,68.9,42.7a14.57,14.57,0,0,0-6.58-.32,34.82,34.82,0,0,0-7.9,2.55q-4.29,1.9-9.26,4.55a90.66,90.66,0,0,1-9.22,4.26,38,38,0,0,1-10.06,2.64,25.71,25.71,0,0,1-10.19-.9,22.4,22.4,0,0,1-9.55-5.93,24.89,24.89,0,0,1-6-9.33C.08,41.28,0,42.35,0,43.45a43.41,43.41,0,0,0,40.64,43.3Z"/></g></g></svg>