<svg xmlns="http://www.w3.org/2000/svg" viewBox="0 0 49.33 90.3"><defs><style>.cls-1{fill:none;stroke:#000;stroke-miterlimit:10;}</style></defs><title>logo2</title><g id="Layer_2" data-name="Layer 2"><g id="Layer_1-2" data-name="Layer 1"><rect class="cls-1" x="0.5" y="8.65" width="48.33" height="73"/><path d="M9.55,44l-.07-1a1.3,1.3,0,0,1,.49-.25q.23,0,1.66-.15T13.42,42q.36-.54.36-4.48l.07-13-.07-2.3q0-.29.07-2.2.07-.89.07-2.13l-.13-5.71,0-5a3.51,3.51,0,0,0-.51-2.31Q12.8,4.4,9.71,4V3.58q0-.2,0-.56a19.26,19.26,0,0,0,3.32-1q.76-.33,3.84-2h1q0,.76,0,.92V3.78l0,1.41L18,7.78l0,3.91,0,6.5-.1,8.08v2.49q0,.46,0,1.28l.36,0a3.9,3.9,0,0,0,2.27-.82,62.57,62.57,0,0,0,6.47-5q1.31-1.33,1.31-1.92a1.68,1.68,0,0,0-.43-.92,7,7,0,0,0-2.2-.72l-.79-.16a9.89,9.89,0,0,0-1-.23L23.83,20A2,2,0,0,1,24,19.3q5.19-.2,9-.2,2.17,0,4.63.1v.43a1.52,1.52,0,0,1-.16.59l-1.54.3a9.71,9.71,0,0,0-3.09.91,26.22,26.22,0,0,0-5.22,3.78Q26,26.65,24.85,27.64l-1.18,1a3.45,3.45,0,0,0,.43.56q.13.13.53.59T26,31.35q3.55,3.74,5.25,5.78l1.25,1.44q2.56,2.86,3,3.18a7.7,7.7,0,0,0,2.72.92l1.48.3a2.11,2.11,0,0,1,.13.62l0,.33q-2.33-.2-3.35-.2h-.59L26.75,44a7,7,0,0,1-.72.07,2,2,0,0,1-.69-.13,1.34,1.34,0,0,1-.1-.46v-.23a.92.92,0,0,1,.36-.36,30.09,30.09,0,0,0,3.76-.43,1.05,1.05,0,0,0,.56-.36A3.82,3.82,0,0,0,29,40.28Q28,39,24.22,34.8a23.79,23.79,0,0,0-3.13-3.13,3.66,3.66,0,0,0-2-.44H17.89q-.13,1.18-.13,5.4,0,3.93.66,5a2.17,2.17,0,0,0,1.71.79,3.75,3.75,0,0,1,1.74.49,1.3,1.3,0,0,1,.33.92l-3.32,0q-2.17,0-4.73.1Q12.6,44,11.72,44Z"/><path d="M11.72,46.32q.89,0,2.43.07,2.56.1,4.73.1l3.32,0a1.3,1.3,0,0,1-.33.92,3.75,3.75,0,0,1-1.74.49,2.17,2.17,0,0,0-1.71.79q-.66,1.11-.66,5,0,4.22.13,5.4h1.25a3.66,3.66,0,0,0,2-.44,23.79,23.79,0,0,0,3.13-3.13Q28,51.27,29,50a3.82,3.82,0,0,0,.95-1.81,1.05,1.05,0,0,0-.56-.36,30.09,30.09,0,0,0-3.76-.43.92.92,0,0,1-.36-.36v-.23a1.34,1.34,0,0,1,.1-.46,2,2,0,0,1,.69-.13,7,7,0,0,1,.72.07l9.13.26h.59q1,0,3.35-.2l0,.33a2.11,2.11,0,0,1-.13.62l-1.48.3a7.7,7.7,0,0,0-2.72.92q-.43.33-3,3.18l-1.25,1.44Q29.57,55.21,26,59,25,60,24.62,60.5t-.53.59a3.45,3.45,0,0,0-.43.56l1.18,1q1.18,1,2.79,2.43a26.22,26.22,0,0,0,5.22,3.78,9.71,9.71,0,0,0,3.09.91l1.54.3a1.52,1.52,0,0,1,.16.59v.43q-2.46.1-4.63.1-3.84,0-9-.2a2,2,0,0,1-.16-.66L23.9,70a9.89,9.89,0,0,0,1-.23l.79-.16a7,7,0,0,0,2.2-.72,1.68,1.68,0,0,0,.43-.92q0-.59-1.31-1.92a62.57,62.57,0,0,0-6.47-5,3.9,3.9,0,0,0-2.27-.82l-.36,0q0,.82,0,1.28V64l.1,8.08,0,6.5,0,3.91-.1,2.59,0,1.41v2.86q0,.16,0,.92h-1q-3.09-1.71-3.84-2a19.26,19.26,0,0,0-3.32-1q0-.36,0-.56v-.39q3.09-.43,3.59-.94a3.51,3.51,0,0,0,.51-2.31l0-5,.13-5.71q0-1.24-.07-2.13-.07-1.9-.07-2.2l.07-2.3-.07-13q0-3.94-.36-4.48t-1.79-.64q-1.43-.1-1.66-.15a1.3,1.3,0,0,1-.49-.25l.07-1Z"/></g></g></svg>